<?xml version="1.0" encoding="UTF-8" standalone="no"?>
<!DOCTYPE svg PUBLIC "-//W3C//DTD SVG 1.1//EN"
 "http://www.w3.org/Graphics/SVG/1.1/DTD/svg11.dtd">
<!-- Generated by graphviz version 14.1.1 (20251213.1925)
 -->
<!-- Title: InheritanceTree Pages: 1 -->
<svg width="510pt" height="1005pt"
 viewBox="0.00 0.00 510.00 1005.00" xmlns="http://www.w3.org/2000/svg" xmlns:xlink="http://www.w3.org/1999/xlink">
<g id="graph0" class="graph" transform="scale(1 1) rotate(0) translate(4 1000.5)">
<title>InheritanceTree</title>
<polygon fill="white" stroke="none" points="-4,4 -4,-1000.5 505.5,-1000.5 505.5,4 -4,4"/>
<text xml:space="preserve" text-anchor="middle" x="250.75" y="-7.2" font-family="Times New Roman,serif" font-size="14.00">simple_zstring &#45; Inheritance Hierarchy</text>
<!-- SIMPLE_COMPACT_SUBSTRINGS_32 -->
<g id="node1" class="node">
<title>SIMPLE_COMPACT_SUBSTRINGS_32</title>
<path fill="none" stroke="black" d="M234.25,-60.5C234.25,-60.5 12,-60.5 12,-60.5 6,-60.5 0,-54.5 0,-48.5 0,-48.5 0,-36.5 0,-36.5 0,-30.5 6,-24.5 12,-24.5 12,-24.5 234.25,-24.5 234.25,-24.5 240.25,-24.5 246.25,-30.5 246.25,-36.5 246.25,-36.5 246.25,-48.5 246.25,-48.5 246.25,-54.5 240.25,-60.5 234.25,-60.5"/>
<text xml:space="preserve" text-anchor="middle" x="123.12" y="-37.45" font-family="Times New Roman,serif" font-size="14.00">SIMPLE_COMPACT_SUBSTRINGS_32</text>
</g>
<!-- SIMPLE_ISO_8859_15_ZCODEC -->
<g id="node2" class="node">
<title>SIMPLE_ISO_8859_15_ZCODEC</title>
<path fill="none" stroke="black" d="M215.12,-132.5C215.12,-132.5 31.12,-132.5 31.12,-132.5 25.12,-132.5 19.12,-126.5 19.12,-120.5 19.12,-120.5 19.12,-108.5 19.12,-108.5 19.12,-102.5 25.12,-96.5 31.12,-96.5 31.12,-96.5 215.12,-96.5 215.12,-96.5 221.12,-96.5 227.12,-102.5 227.12,-108.5 227.12,-108.5 227.12,-120.5 227.12,-120.5 227.12,-126.5 221.12,-132.5 215.12,-132.5"/>
<text xml:space="preserve" text-anchor="middle" x="123.12" y="-109.45" font-family="Times New Roman,serif" font-size="14.00">SIMPLE_ISO_8859_15_ZCODEC</text>
</g>
<!-- SIMPLE_ZCODEC -->
<g id="node3" class="node">
<title>SIMPLE_ZCODEC</title>
<path fill="none" stroke="black" d="M478.62,-132.5C478.62,-132.5 377.12,-132.5 377.12,-132.5 371.12,-132.5 365.12,-126.5 365.12,-120.5 365.12,-120.5 365.12,-108.5 365.12,-108.5 365.12,-102.5 371.12,-96.5 377.12,-96.5 377.12,-96.5 478.62,-96.5 478.62,-96.5 484.62,-96.5 490.62,-102.5 490.62,-108.5 490.62,-108.5 490.62,-120.5 490.62,-120.5 490.62,-126.5 484.62,-132.5 478.62,-132.5"/>
<text xml:space="preserve" text-anchor="middle" x="427.88" y="-109.45" font-family="Times New Roman,serif" font-size="14.00">SIMPLE_ZCODEC</text>
</g>
<!-- SIMPLE_ISO_8859_15_ZCODEC&#45;&gt;SIMPLE_ZCODEC -->
<g id="edge1" class="edge">
<title>SIMPLE_ISO_8859_15_ZCODEC&#45;&gt;SIMPLE_ZCODEC</title>
<path fill="none" stroke="black" d="M227.58,-114.5C227.58,-114.5 353.37,-114.5 353.37,-114.5"/>
<polygon fill="none" stroke="black" points="353.37,-118 363.37,-114.5 353.37,-111 353.37,-118"/>
</g>
<!-- SIMPLE_ZSTRING -->
<g id="node4" class="node">
<title>SIMPLE_ZSTRING</title>
<path fill="none" stroke="black" d="M175.38,-240.5C175.38,-240.5 70.88,-240.5 70.88,-240.5 64.88,-240.5 58.88,-234.5 58.88,-228.5 58.88,-228.5 58.88,-216.5 58.88,-216.5 58.88,-210.5 64.88,-204.5 70.88,-204.5 70.88,-204.5 175.38,-204.5 175.38,-204.5 181.38,-204.5 187.38,-210.5 187.38,-216.5 187.38,-216.5 187.38,-228.5 187.38,-228.5 187.38,-234.5 181.38,-240.5 175.38,-240.5"/>
<text xml:space="preserve" text-anchor="middle" x="123.12" y="-217.45" font-family="Times New Roman,serif" font-size="14.00">SIMPLE_ZSTRING</text>
</g>
<!-- COMPARABLE -->
<g id="node5" class="node">
<title>COMPARABLE</title>
<path fill="none" stroke="black" d="M470,-276.5C470,-276.5 385.75,-276.5 385.75,-276.5 379.75,-276.5 373.75,-270.5 373.75,-264.5 373.75,-264.5 373.75,-252.5 373.75,-252.5 373.75,-246.5 379.75,-240.5 385.75,-240.5 385.75,-240.5 470,-240.5 470,-240.5 476,-240.5 482,-246.5 482,-252.5 482,-252.5 482,-264.5 482,-264.5 482,-270.5 476,-276.5 470,-276.5"/>
<text xml:space="preserve" text-anchor="middle" x="427.88" y="-253.45" font-family="Times New Roman,serif" font-size="14.00">COMPARABLE</text>
</g>
<!-- SIMPLE_ZSTRING&#45;&gt;COMPARABLE -->
<g id="edge2" class="edge">
<title>SIMPLE_ZSTRING&#45;&gt;COMPARABLE</title>
<path fill="none" stroke="black" d="M187.74,-228.5C263.98,-228.5 380.5,-228.5 380.5,-228.5 380.5,-228.5 380.5,-229.65 380.5,-229.65"/>
<polygon fill="none" stroke="black" points="377,-228.5 380.5,-238.5 384,-228.5 377,-228.5"/>
</g>
<!-- ITERABLE -->
<g id="node6" class="node">
<title>ITERABLE</title>
<path fill="none" stroke="black" d="M456.5,-204.5C456.5,-204.5 399.25,-204.5 399.25,-204.5 393.25,-204.5 387.25,-198.5 387.25,-192.5 387.25,-192.5 387.25,-180.5 387.25,-180.5 387.25,-174.5 393.25,-168.5 399.25,-168.5 399.25,-168.5 456.5,-168.5 456.5,-168.5 462.5,-168.5 468.5,-174.5 468.5,-180.5 468.5,-180.5 468.5,-192.5 468.5,-192.5 468.5,-198.5 462.5,-204.5 456.5,-204.5"/>
<text xml:space="preserve" text-anchor="middle" x="427.88" y="-181.45" font-family="Times New Roman,serif" font-size="14.00">ITERABLE</text>
</g>
<!-- SIMPLE_ZSTRING&#45;&gt;ITERABLE -->
<g id="edge3" class="edge">
<title>SIMPLE_ZSTRING&#45;&gt;ITERABLE</title>
<path fill="none" stroke="black" d="M187.68,-216.5C277.02,-216.5 427.5,-216.5 427.5,-216.5 427.5,-216.5 427.5,-215.35 427.5,-215.35"/>
<polygon fill="none" stroke="black" points="431,-216.5 427.5,-206.5 424,-216.5 431,-216.5"/>
</g>
<!-- SIMPLE_ZSTRING_CURSOR -->
<g id="node7" class="node">
<title>SIMPLE_ZSTRING_CURSOR</title>
<path fill="none" stroke="black" d="M205.75,-348.5C205.75,-348.5 40.5,-348.5 40.5,-348.5 34.5,-348.5 28.5,-342.5 28.5,-336.5 28.5,-336.5 28.5,-324.5 28.5,-324.5 28.5,-318.5 34.5,-312.5 40.5,-312.5 40.5,-312.5 205.75,-312.5 205.75,-312.5 211.75,-312.5 217.75,-318.5 217.75,-324.5 217.75,-324.5 217.75,-336.5 217.75,-336.5 217.75,-342.5 211.75,-348.5 205.75,-348.5"/>
<text xml:space="preserve" text-anchor="middle" x="123.12" y="-325.45" font-family="Times New Roman,serif" font-size="14.00">SIMPLE_ZSTRING_CURSOR</text>
</g>
<!-- ITERATION_CURSOR -->
<g id="node8" class="node">
<title>ITERATION_CURSOR</title>
<path fill="none" stroke="black" d="M489.5,-348.5C489.5,-348.5 366.25,-348.5 366.25,-348.5 360.25,-348.5 354.25,-342.5 354.25,-336.5 354.25,-336.5 354.25,-324.5 354.25,-324.5 354.25,-318.5 360.25,-312.5 366.25,-312.5 366.25,-312.5 489.5,-312.5 489.5,-312.5 495.5,-312.5 501.5,-318.5 501.5,-324.5 501.5,-324.5 501.5,-336.5 501.5,-336.5 501.5,-342.5 495.5,-348.5 489.5,-348.5"/>
<text xml:space="preserve" text-anchor="middle" x="427.88" y="-325.45" font-family="Times New Roman,serif" font-size="14.00">ITERATION_CURSOR</text>
</g>
<!-- SIMPLE_ZSTRING_CURSOR&#45;&gt;ITERATION_CURSOR -->
<g id="edge4" class="edge">
<title>SIMPLE_ZSTRING_CURSOR&#45;&gt;ITERATION_CURSOR</title>
<path fill="none" stroke="black" d="M217.88,-330.5C217.88,-330.5 342.48,-330.5 342.48,-330.5"/>
<polygon fill="none" stroke="black" points="342.48,-334 352.48,-330.5 342.48,-327 342.48,-334"/>
</g>
<!-- SIMPLE_ZSTRING_EDITOR -->
<g id="node9" class="node">
<title>SIMPLE_ZSTRING_EDITOR</title>
<path fill="none" stroke="black" d="M203.5,-420.5C203.5,-420.5 42.75,-420.5 42.75,-420.5 36.75,-420.5 30.75,-414.5 30.75,-408.5 30.75,-408.5 30.75,-396.5 30.75,-396.5 30.75,-390.5 36.75,-384.5 42.75,-384.5 42.75,-384.5 203.5,-384.5 203.5,-384.5 209.5,-384.5 215.5,-390.5 215.5,-396.5 215.5,-396.5 215.5,-408.5 215.5,-408.5 215.5,-414.5 209.5,-420.5 203.5,-420.5"/>
<text xml:space="preserve" text-anchor="middle" x="123.12" y="-397.45" font-family="Times New Roman,serif" font-size="14.00">SIMPLE_ZSTRING_EDITOR</text>
</g>
<!-- SIMPLE_ZSTRING_ESCAPER -->
<g id="node10" class="node">
<title>SIMPLE_ZSTRING_ESCAPER</title>
<path fill="none" stroke="black" d="M208.38,-492.5C208.38,-492.5 37.88,-492.5 37.88,-492.5 31.88,-492.5 25.88,-486.5 25.88,-480.5 25.88,-480.5 25.88,-468.5 25.88,-468.5 25.88,-462.5 31.88,-456.5 37.88,-456.5 37.88,-456.5 208.38,-456.5 208.38,-456.5 214.38,-456.5 220.38,-462.5 220.38,-468.5 220.38,-468.5 220.38,-480.5 220.38,-480.5 220.38,-486.5 214.38,-492.5 208.38,-492.5"/>
<text xml:space="preserve" text-anchor="middle" x="123.12" y="-469.45" font-family="Times New Roman,serif" font-size="14.00">SIMPLE_ZSTRING_ESCAPER</text>
</g>
<!-- SIMPLE_ZSTRING_BUILDER -->
<g id="node11" class="node">
<title>SIMPLE_ZSTRING_BUILDER</title>
<path fill="none" stroke="black" d="M208,-564.5C208,-564.5 38.25,-564.5 38.25,-564.5 32.25,-564.5 26.25,-558.5 26.25,-552.5 26.25,-552.5 26.25,-540.5 26.25,-540.5 26.25,-534.5 32.25,-528.5 38.25,-528.5 38.25,-528.5 208,-528.5 208,-528.5 214,-528.5 220,-534.5 220,-540.5 220,-540.5 220,-552.5 220,-552.5 220,-558.5 214,-564.5 208,-564.5"/>
<text xml:space="preserve" text-anchor="middle" x="123.12" y="-541.45" font-family="Times New Roman,serif" font-size="14.00">SIMPLE_ZSTRING_BUILDER</text>
</g>
<!-- ANY -->
<g id="node12" class="node">
<title>ANY</title>
<path fill="none" stroke="black" d="M442.88,-564.5C442.88,-564.5 412.88,-564.5 412.88,-564.5 406.88,-564.5 400.88,-558.5 400.88,-552.5 400.88,-552.5 400.88,-540.5 400.88,-540.5 400.88,-534.5 406.88,-528.5 412.88,-528.5 412.88,-528.5 442.88,-528.5 442.88,-528.5 448.88,-528.5 454.88,-534.5 454.88,-540.5 454.88,-540.5 454.88,-552.5 454.88,-552.5 454.88,-558.5 448.88,-564.5 442.88,-564.5"/>
<text xml:space="preserve" text-anchor="middle" x="427.88" y="-541.45" font-family="Times New Roman,serif" font-size="14.00">ANY</text>
</g>
<!-- SIMPLE_ZSTRING_BUILDER&#45;&gt;ANY -->
<g id="edge5" class="edge">
<title>SIMPLE_ZSTRING_BUILDER&#45;&gt;ANY</title>
<path fill="none" stroke="black" d="M220.39,-546.5C220.39,-546.5 388.94,-546.5 388.94,-546.5"/>
<polygon fill="none" stroke="black" points="388.94,-550 398.94,-546.5 388.94,-543 388.94,-550"/>
</g>
<!-- SIMPLE_ZSTRING_FORMATTER -->
<g id="node13" class="node">
<title>SIMPLE_ZSTRING_FORMATTER</title>
<path fill="none" stroke="black" d="M219.25,-636.5C219.25,-636.5 27,-636.5 27,-636.5 21,-636.5 15,-630.5 15,-624.5 15,-624.5 15,-612.5 15,-612.5 15,-606.5 21,-600.5 27,-600.5 27,-600.5 219.25,-600.5 219.25,-600.5 225.25,-600.5 231.25,-606.5 231.25,-612.5 231.25,-612.5 231.25,-624.5 231.25,-624.5 231.25,-630.5 225.25,-636.5 219.25,-636.5"/>
<text xml:space="preserve" text-anchor="middle" x="123.12" y="-613.45" font-family="Times New Roman,serif" font-size="14.00">SIMPLE_ZSTRING_FORMATTER</text>
</g>
<!-- SIMPLE_ZSTRING_SEARCHER -->
<g id="node14" class="node">
<title>SIMPLE_ZSTRING_SEARCHER</title>
<path fill="none" stroke="black" d="M214,-708.5C214,-708.5 32.25,-708.5 32.25,-708.5 26.25,-708.5 20.25,-702.5 20.25,-696.5 20.25,-696.5 20.25,-684.5 20.25,-684.5 20.25,-678.5 26.25,-672.5 32.25,-672.5 32.25,-672.5 214,-672.5 214,-672.5 220,-672.5 226,-678.5 226,-684.5 226,-684.5 226,-696.5 226,-696.5 226,-702.5 220,-708.5 214,-708.5"/>
<text xml:space="preserve" text-anchor="middle" x="123.12" y="-685.45" font-family="Times New Roman,serif" font-size="14.00">SIMPLE_ZSTRING_SEARCHER</text>
</g>
<!-- SIMPLE_ZSTRING_SPLITTER -->
<g id="node15" class="node">
<title>SIMPLE_ZSTRING_SPLITTER</title>
<path fill="none" stroke="black" d="M209.5,-780.5C209.5,-780.5 36.75,-780.5 36.75,-780.5 30.75,-780.5 24.75,-774.5 24.75,-768.5 24.75,-768.5 24.75,-756.5 24.75,-756.5 24.75,-750.5 30.75,-744.5 36.75,-744.5 36.75,-744.5 209.5,-744.5 209.5,-744.5 215.5,-744.5 221.5,-750.5 221.5,-756.5 221.5,-756.5 221.5,-768.5 221.5,-768.5 221.5,-774.5 215.5,-780.5 209.5,-780.5"/>
<text xml:space="preserve" text-anchor="middle" x="123.12" y="-757.45" font-family="Times New Roman,serif" font-size="14.00">SIMPLE_ZSTRING_SPLITTER</text>
</g>
<!-- ADVERSARIAL_TESTS -->
<g id="node16" class="node">
<title>ADVERSARIAL_TESTS</title>
<path fill="none" stroke="black" d="M190,-852.5C190,-852.5 56.25,-852.5 56.25,-852.5 50.25,-852.5 44.25,-846.5 44.25,-840.5 44.25,-840.5 44.25,-828.5 44.25,-828.5 44.25,-822.5 50.25,-816.5 56.25,-816.5 56.25,-816.5 190,-816.5 190,-816.5 196,-816.5 202,-822.5 202,-828.5 202,-828.5 202,-840.5 202,-840.5 202,-846.5 196,-852.5 190,-852.5"/>
<text xml:space="preserve" text-anchor="middle" x="123.12" y="-829.45" font-family="Times New Roman,serif" font-size="14.00">ADVERSARIAL_TESTS</text>
</g>
<!-- TEST_APP -->
<g id="node17" class="node">
<title>TEST_APP</title>
<path fill="none" stroke="black" d="M151,-924.5C151,-924.5 95.25,-924.5 95.25,-924.5 89.25,-924.5 83.25,-918.5 83.25,-912.5 83.25,-912.5 83.25,-900.5 83.25,-900.5 83.25,-894.5 89.25,-888.5 95.25,-888.5 95.25,-888.5 151,-888.5 151,-888.5 157,-888.5 163,-894.5 163,-900.5 163,-900.5 163,-912.5 163,-912.5 163,-918.5 157,-924.5 151,-924.5"/>
<text xml:space="preserve" text-anchor="middle" x="123.12" y="-901.45" font-family="Times New Roman,serif" font-size="14.00">TEST_APP</text>
</g>
<!-- ZSTRING_TESTS -->
<g id="node18" class="node">
<title>ZSTRING_TESTS</title>
<path fill="none" stroke="black" d="M170.88,-996.5C170.88,-996.5 75.38,-996.5 75.38,-996.5 69.38,-996.5 63.38,-990.5 63.38,-984.5 63.38,-984.5 63.38,-972.5 63.38,-972.5 63.38,-966.5 69.38,-960.5 75.38,-960.5 75.38,-960.5 170.88,-960.5 170.88,-960.5 176.88,-960.5 182.88,-966.5 182.88,-972.5 182.88,-972.5 182.88,-984.5 182.88,-984.5 182.88,-990.5 176.88,-996.5 170.88,-996.5"/>
<text xml:space="preserve" text-anchor="middle" x="123.12" y="-973.45" font-family="Times New Roman,serif" font-size="14.00">ZSTRING_TESTS</text>
</g>
</g>
</svg>
