<?xml version="1.0" encoding="UTF-8" standalone="no"?>
<!DOCTYPE svg PUBLIC "-//W3C//DTD SVG 1.1//EN"
 "http://www.w3.org/Graphics/SVG/1.1/DTD/svg11.dtd">
<!-- Generated by graphviz version 14.1.1 (20251213.1925)
 -->
<!-- Title: Dependencies Pages: 1 -->
<svg width="357pt" height="213pt"
 viewBox="0.00 0.00 357.00 213.00" xmlns="http://www.w3.org/2000/svg" xmlns:xlink="http://www.w3.org/1999/xlink">
<g id="graph0" class="graph" transform="scale(1 1) rotate(0) translate(4 208.5)">
<title>Dependencies</title>
<polygon fill="white" stroke="none" points="-4,4 -4,-208.5 353.25,-208.5 353.25,4 -4,4"/>
<text xml:space="preserve" text-anchor="middle" x="174.62" y="-7.2" font-family="Times New Roman,serif" font-size="14.00">simple_zstring &#45; Dependencies</text>
<!-- simple_zstring -->
<g id="node1" class="node">
<title>simple_zstring</title>
<polygon fill="lightblue" stroke="black" points="96.25,-132.5 0,-132.5 0,-96.5 96.25,-96.5 96.25,-132.5"/>
<text xml:space="preserve" text-anchor="middle" x="48.12" y="-109.45" font-family="Times New Roman,serif" font-size="14.00">simple_zstring</text>
</g>
<!-- simple_encoding -->
<g id="node2" class="node">
<title>simple_encoding</title>
<polygon fill="lightblue" stroke="black" points="349.25,-204.5 240.25,-204.5 240.25,-168.5 349.25,-168.5 349.25,-204.5"/>
<text xml:space="preserve" text-anchor="middle" x="294.75" y="-181.45" font-family="Times New Roman,serif" font-size="14.00">simple_encoding</text>
</g>
<!-- simple_zstring&#45;&gt;simple_encoding -->
<g id="edge1" class="edge">
<title>simple_zstring&#45;&gt;simple_encoding</title>
<path fill="none" stroke="black" stroke-dasharray="5,2" d="M96.71,-120.5C157.65,-120.5 254.25,-120.5 254.25,-120.5 254.25,-120.5 254.25,-156.6 254.25,-156.6"/>
<polygon fill="black" stroke="black" points="250.75,-156.6 254.25,-166.6 257.75,-156.6 250.75,-156.6"/>
</g>
<!-- base -->
<g id="node3" class="node">
<title>base</title>
<polygon fill="lightgray" stroke="black" points="321.75,-132.5 267.75,-132.5 267.75,-96.5 321.75,-96.5 321.75,-132.5"/>
<text xml:space="preserve" text-anchor="middle" x="294.75" y="-109.45" font-family="Times New Roman,serif" font-size="14.00">base</text>
</g>
<!-- simple_zstring&#45;&gt;base -->
<g id="edge2" class="edge">
<title>simple_zstring&#45;&gt;base</title>
<path fill="none" stroke="black" stroke-dasharray="5,2" d="M96.56,-108.5C96.56,-108.5 255.93,-108.5 255.93,-108.5"/>
<polygon fill="black" stroke="black" points="255.93,-112 265.93,-108.5 255.93,-105 255.93,-112"/>
</g>
<!-- testing -->
<g id="node4" class="node">
<title>testing</title>
<polygon fill="lightgray" stroke="black" points="321.75,-60.5 267.75,-60.5 267.75,-24.5 321.75,-24.5 321.75,-60.5"/>
<text xml:space="preserve" text-anchor="middle" x="294.75" y="-37.45" font-family="Times New Roman,serif" font-size="14.00">testing</text>
</g>
<!-- simple_zstring&#45;&gt;testing -->
<g id="edge3" class="edge">
<title>simple_zstring&#45;&gt;testing</title>
<path fill="none" stroke="black" stroke-dasharray="5,2" d="M48.25,-96.33C48.25,-75 48.25,-42.5 48.25,-42.5 48.25,-42.5 255.91,-42.5 255.91,-42.5"/>
<polygon fill="black" stroke="black" points="255.91,-46 265.91,-42.5 255.91,-39 255.91,-46"/>
</g>
</g>
</svg>
